<?xml version="1.0" standalone="no"?>
<!DOCTYPE svg PUBLIC "-//W3C//DTD SVG 20010904//EN"
 "http://www.w3.org/TR/2001/REC-SVG-20010904/DTD/svg10.dtd">
<svg version="1.0" xmlns="http://www.w3.org/2000/svg"
 width="393.000000pt" height="852.000000pt" viewBox="0 0 393.000000 852.000000"
 preserveAspectRatio="xMidYMid meet">

<g transform="translate(0.000000,852.000000) scale(0.100000,-0.100000)"
fill="#000000" stroke="none">
<path d="M0 5446 l0 -3074 68 -6 c332 -30 584 -97 840 -222 102 -50 112 -57
100 -72 -12 -15 -11 -16 4 -4 14 12 21 11 38 -1 18 -13 19 -15 5 -21 -9 -3
-43 -6 -76 -6 -33 0 -59 -4 -59 -10 0 -5 -18 -10 -40 -10 -22 0 -40 -4 -40
-10 0 -5 -9 -10 -20 -10 -11 0 -20 -4 -20 -10 0 -5 -28 -11 -62 -11 -35 -1
-53 -4 -40 -6 36 -7 25 -23 -17 -23 -108 0 -196 -20 -143 -33 9 -2 0 -2 -20 0
-24 3 -38 1 -38 -6 0 -7 -23 -11 -60 -11 -33 0 -60 -4 -60 -10 0 -5 10 -11 23
-11 35 -2 -72 -17 -130 -18 -63 -1 -72 -20 -10 -22 56 -2 31 -6 -75 -14 -84
-7 -113 -19 -65 -28 12 -2 -6 -5 -40 -6 l-63 -1 0 -895 0 -895 1965 0 1965 0
0 4260 0 4260 -40 0 c-35 0 -40 -3 -41 -22 -1 -22 -1 -22 -9 2 -7 21 -8 19 -9
-17 -1 -24 -5 -43 -11 -43 -5 0 -10 -10 -11 -22 -1 -22 -1 -22 -9 2 -8 24 -8
24 -9 3 -1 -13 -5 -23 -11 -23 -5 0 -10 -9 -10 -20 0 -11 -4 -20 -10 -20 -5 0
-10 -9 -10 -20 0 -11 -4 -20 -10 -20 -5 0 -10 -10 -11 -22 -1 -22 -1 -22 -9 2
-7 21 -8 19 -9 -17 -1 -36 -4 -43 -21 -43 -14 0 -20 -7 -20 -24 0 -13 -3 -26
-8 -28 -4 -1 -23 -34 -42 -73 -35 -72 -48 -87 -62 -79 -4 3 -8 -6 -8 -20 0
-14 -4 -26 -10 -26 -5 0 -10 -19 -11 -42 -1 -37 -2 -39 -9 -18 -8 24 -8 24 -9
3 -1 -13 -5 -23 -11 -23 -5 0 -10 -18 -10 -40 0 -36 -2 -40 -25 -40 -18 0 -25
-5 -25 -19 0 -10 -7 -21 -15 -25 -9 -3 -15 -20 -16 -43 -1 -34 -2 -35 -9 -13
-8 24 -8 24 -9 3 -1 -13 -5 -23 -11 -23 -5 0 -10 -19 -11 -42 -1 -37 -2 -39
-9 -18 -5 14 -8 18 -9 9 -1 -9 -7 -29 -15 -44 l-14 -27 -5 23 c-3 17 -5 13 -6
-12 0 -20 -7 -49 -15 -64 l-14 -27 -5 23 c-3 17 -5 13 -6 -12 -1 -40 -31 -110
-31 -74 0 12 -10 1 -25 -29 -14 -27 -25 -55 -25 -63 0 -7 -4 -13 -10 -13 -5 0
-10 -10 -11 -22 -1 -22 -1 -22 -9 2 -7 21 -8 19 -9 -17 -1 -24 -5 -43 -11 -43
-5 0 -10 -10 -11 -22 -1 -22 -1 -22 -9 2 -8 24 -8 24 -9 3 -1 -13 -5 -23 -11
-23 -5 0 -10 -19 -11 -42 0 -33 -2 -38 -9 -23 -7 17 -9 17 -9 3 -1 -10 -5 -18
-11 -18 -5 0 -10 -10 -11 -22 -1 -22 -1 -22 -9 2 -7 23 -8 22 -9 -11 -1 -20
-7 -49 -15 -64 l-14 -27 -5 23 c-4 22 -4 22 -6 -3 0 -16 -5 -28 -9 -28 -12 0
-32 -59 -25 -76 3 -8 -1 -14 -11 -14 -18 0 -19 27 -17 345 3 308 35 708 86
1075 14 96 25 176 25 177 0 2 -684 3 -1520 3 l-1520 0 0 -3074z m3207 1902
c-3 -7 -5 -2 -5 12 0 14 2 19 5 13 2 -7 2 -19 0 -25z"/>
</g>
</svg>
